<?xml version="1.0" encoding="UTF-8"?>
<svg xmlns="http://www.w3.org/2000/svg" xmlns:xlink="http://www.w3.org/1999/xlink" width="30" height="30" viewBox="0 0 3000 3000">
<rect x="-300" y="-300" width="3600" height="3600" fill="rgb(100%, 100%, 100%)" fill-opacity="1"/>
<path fill-rule="nonzero" fill="rgb(0%, 0%, 0%)" fill-opacity="1" d="M 401.992188 782.320312 L 399.320312 803.839844 C 391.554688 868.621094 392.785156 901.019531 403.011719 901.019531 C 403.050781 901.019531 403.089844 901.019531 403.128906 901.019531 C 406.050781 903.148438 409.332031 904.210938 412.96875 904.210938 C 417.960938 904.210938 423.632812 902.199219 429.976562 898.171875 C 436.195312 864.660156 444.164062 847.898438 453.886719 847.898438 C 454.769531 847.898438 455.664062 848.039062 456.574219 848.308594 C 457.097656 848.28125 457.636719 848.269531 458.195312 848.269531 C 468.136719 848.269531 483.605469 853.351562 504.605469 863.511719 L 516.601562 891.109375 C 525.179688 913.160156 559.300781 1021.03125 618.957031 1214.730469 L 937.46875 2260.757812 L 948.601562 2297.324219 L 948.679688 2297.578125 L 948.78125 2297.578125 L 943.941406 2281.535156 L 2375.808594 2286.675781 L 2367.949219 2109.5 L 1032.890625 2096.125 L 636.710938 840.820312 Z M 401.992188 782.320312 "/>
<path fill-rule="nonzero" fill="rgb(0%, 0%, 0%)" fill-opacity="1" d="M 937.46875 2226.625 L 937.46875 2260.757812 L 948.601562 2297.324219 L 948.679688 2297.578125 L 948.78125 2297.578125 L 943.941406 2281.535156 L 2307.859375 2282.980469 L 2309.921875 2226.625 Z M 937.46875 2226.625 "/>
<path fill-rule="nonzero" fill="rgb(0%, 0%, 0%)" fill-opacity="1" d="M 1385.691406 2429.625 L 1384.519531 2446.132812 C 1378.960938 2479.386719 1362.699219 2505.984375 1335.730469 2525.921875 C 1308.570312 2545.84375 1276.589844 2553.921875 1239.789062 2550.15625 C 1204.660156 2544.894531 1176.570312 2529.492188 1155.511719 2503.957031 C 1148.769531 2495.703125 1143.210938 2486.707031 1138.839844 2476.972656 L 1133.328125 2461.964844 C 1130.308594 2451.632812 1128.78125 2440.855469 1128.738281 2429.625 C 1129.660156 2395.167969 1142.199219 2366.496094 1166.371094 2343.613281 C 1190.539062 2320.730469 1220.820312 2308.855469 1257.21875 2307.984375 C 1293.609375 2308.855469 1323.898438 2320.730469 1348.070312 2343.613281 C 1372.230469 2366.496094 1384.78125 2395.167969 1385.691406 2429.625 "/>
<path fill-rule="nonzero" fill="rgb(0%, 0%, 0%)" fill-opacity="1" d="M 2214.910156 2429.851562 L 2213.738281 2446.359375 C 2209.71875 2464.257812 2206.679688 2474.601562 2204.609375 2477.394531 C 2201.789062 2483.796875 2198.441406 2489.871094 2194.558594 2495.617188 C 2186.800781 2507.109375 2176.929688 2517.285156 2164.941406 2526.148438 C 2162.21875 2529.09375 2152.628906 2534.417969 2136.179688 2542.121094 C 2129.429688 2544.792969 2122.441406 2546.882812 2115.21875 2548.382812 C 2100.761719 2551.390625 2085.359375 2552.054688 2069 2550.382812 C 2053.390625 2548.042969 2039.171875 2543.703125 2026.339844 2537.359375 C 2019.921875 2534.1875 2013.851562 2530.515625 2008.128906 2526.339844 C 1994.429688 2515.03125 1986.628906 2507.644531 1984.730469 2504.183594 C 1963.828125 2476.726562 1955.148438 2448.191406 1958.691406 2418.582031 C 1960.25 2403.835938 1964.101562 2390.238281 1970.25 2377.78125 C 1973.328125 2371.550781 1976.980469 2365.609375 1981.199219 2359.953125 C 1982.660156 2356.703125 1990.21875 2348.925781 2003.871094 2336.621094 C 2026.558594 2318.453125 2054.078125 2308.984375 2086.429688 2308.210938 C 2102.609375 2308.597656 2117.578125 2311.160156 2131.339844 2315.894531 C 2138.21875 2318.261719 2144.800781 2321.171875 2151.070312 2324.625 C 2166.238281 2334.214844 2174.96875 2340.617188 2177.28125 2343.839844 C 2188.019531 2354.007812 2196.46875 2365.324219 2202.621094 2377.78125 C 2205.691406 2384.007812 2208.191406 2390.523438 2210.121094 2397.324219 C 2213.929688 2414.824219 2215.519531 2425.667969 2214.910156 2429.851562 "/>
<path fill-rule="nonzero" fill="rgb(7.446289%, 0.392151%, 0.392151%)" fill-opacity="1" d="M 798.070312 1029.890625 L 2539.570312 1053.601562 L 2206.921875 2024.09375 L 1117.019531 2017.171875 Z M 761.476562 976.359375 C 753.066406 976.359375 745.144531 980.351562 740.140625 987.128906 C 735.066406 994 733.617188 1002.898438 736.242188 1011.03125 L 1072.441406 2051.71875 C 1075.960938 2062.605469 1086.058594 2070.011719 1097.511719 2070.082031 L 2225.660156 2077.25 C 2225.710938 2077.25 2225.769531 2077.253906 2225.820312 2077.253906 C 2237.148438 2077.253906 2247.230469 2070.054688 2250.910156 2059.332031 L 2601.609375 1036.179688 C 2604.359375 1028.140625 2603.101562 1019.261719 2598.199219 1012.308594 C 2593.308594 1005.359375 2585.378906 1001.179688 2576.878906 1001.058594 L 761.835938 976.359375 C 761.714844 976.359375 761.597656 976.359375 761.476562 976.359375 Z M 761.476562 976.359375 "/>
<path fill-rule="nonzero" fill="rgb(7.446289%, 0.392151%, 0.392151%)" fill-opacity="1" d="M 1001.941406 1768.140625 L 1018.101562 1016.179688 L 1018.671875 989.671875 L 1071.691406 990.808594 L 1071.128906 1017.320312 L 1054.960938 1769.28125 L 1054.398438 1795.789062 L 1001.378906 1794.648438 Z M 1001.941406 1768.140625 "/>
<path fill-rule="nonzero" fill="rgb(7.446289%, 0.392151%, 0.392151%)" fill-opacity="1" d="M 1333.808594 1046.101562 L 1328.460938 2003.234375 L 1328.308594 2029.75 L 1275.269531 2029.453125 L 1275.421875 2002.9375 L 1280.769531 1045.808594 L 1280.921875 1019.289062 L 1333.960938 1019.589844 Z M 1333.808594 1046.101562 "/>
<path fill-rule="nonzero" fill="rgb(7.446289%, 0.392151%, 0.392151%)" fill-opacity="1" d="M 1645.898438 1056.101562 L 1612.140625 2037.511719 L 1611.230469 2064.011719 L 1558.21875 2062.1875 L 1559.128906 2035.6875 L 1592.898438 1054.269531 L 1593.808594 1027.769531 L 1646.820312 1029.589844 Z M 1645.898438 1056.101562 "/>
<path fill-rule="nonzero" fill="rgb(7.446289%, 0.392151%, 0.392151%)" fill-opacity="1" d="M 1848.671875 2004.613281 L 1865.441406 1039.371094 L 1865.898438 1012.859375 L 1918.929688 1013.78125 L 1918.46875 1040.289062 L 1901.691406 2005.535156 L 1901.230469 2032.046875 L 1848.210938 2031.125 Z M 1848.671875 2004.613281 "/>
<path fill-rule="nonzero" fill="rgb(7.446289%, 0.392151%, 0.392151%)" fill-opacity="1" d="M 2173.679688 1027.089844 L 2162.210938 2014.464844 L 2161.898438 2040.980469 L 2108.871094 2040.363281 L 2109.179688 2013.847656 L 2120.640625 1026.480469 L 2120.949219 999.960938 L 2173.980469 1000.570312 Z M 2173.679688 1027.089844 "/>
<path fill-rule="nonzero" fill="rgb(7.446289%, 0.392151%, 0.392151%)" fill-opacity="1" d="M 2344.878906 1004.621094 L 2343.898438 1031.121094 L 2343.171875 1050.921875 L 2335.570312 1257.21875 L 2333.609375 1310.21875 L 2386.640625 1311.601562 L 2333.609375 1310.230469 L 2325.71875 1524.441406 L 2323.769531 1577.449219 L 2319.398438 1695.929688 L 2359.851562 1577.941406 L 2319.398438 1695.929688 L 2318.789062 1712.679688 L 2317.808594 1739.179688 L 2360.109375 1740.730469 L 2372.121094 1705.710938 L 2376.820312 1578.160156 L 2378.769531 1525.148438 L 2378.871094 1522.449219 L 2377.949219 1525.140625 L 2378.871094 1522.449219 L 2386.640625 1311.601562 L 2388.589844 1258.589844 L 2396.21875 1051.640625 L 2396.898438 1033.070312 L 2397.878906 1006.570312 Z M 2344.878906 1004.621094 "/>
<path fill-rule="nonzero" fill="rgb(7.446289%, 0.392151%, 0.392151%)" fill-opacity="1" d="M 1004.921875 1742.070312 L 1004.140625 1795.101562 L 1030.660156 1795.488281 L 1045.46875 1795.710938 L 1276.558594 1799.089844 L 1329.589844 1799.871094 L 1567.128906 1803.351562 L 1620.171875 1804.121094 L 1852.089844 1807.519531 L 1905.121094 1808.300781 L 2111.53125 1811.320312 L 2164.558594 1812.101562 L 2279.011719 1813.78125 L 2334.789062 1814.601562 L 2352.878906 1761.820312 L 2335.800781 1761.570312 L 2297.101562 1761 L 2165.179688 1759.070312 L 2112.140625 1758.289062 L 1906.039062 1755.269531 L 1853.011719 1754.5 L 1621.988281 1751.109375 L 1568.949219 1750.339844 L 1329.890625 1746.828125 L 1276.859375 1746.058594 L 1055.539062 1742.808594 L 1031.429688 1742.460938 Z M 1004.921875 1742.070312 "/>
<path fill-rule="nonzero" fill="rgb(7.446289%, 0.392151%, 0.392151%)" fill-opacity="1" d="M 1910.148438 1518.878906 L 1909.230469 1571.910156 L 2114.28125 1574.648438 L 2167.308594 1575.359375 L 2323.769531 1577.449219 L 2399.699219 1578.46875 L 2415.660156 1578.679688 L 2426.648438 1546.609375 L 2426.929688 1525.789062 L 2400.410156 1525.441406 L 2325.71875 1524.441406 L 2167.929688 1522.328125 L 2167.308594 1575.359375 L 2167.929688 1522.328125 L 2114.890625 1521.621094 Z M 1910.148438 1518.878906 "/>
<path fill-rule="nonzero" fill="rgb(7.446289%, 0.392151%, 0.392151%)" fill-opacity="1" d="M 1577.070312 1514.421875 L 1575.238281 1567.441406 L 1628.289062 1568.148438 L 1856.199219 1571.199219 L 1909.230469 1571.910156 L 1910.148438 1518.878906 L 1857.121094 1518.171875 L 1630.109375 1515.128906 Z M 1577.070312 1514.421875 "/>
<path fill-rule="nonzero" fill="rgb(7.446289%, 0.392151%, 0.392151%)" fill-opacity="1" d="M 916.519531 1505.941406 L 916.519531 1532.449219 C 916.519531 1546.960938 928.175781 1558.78125 942.679688 1558.96875 L 969.105469 1559.328125 L 1006.421875 1559.820312 L 1059.449219 1560.539062 L 1277.878906 1563.460938 L 1330.910156 1564.171875 L 1575.238281 1567.441406 L 1577.070312 1514.421875 L 1331.210938 1511.128906 L 1278.179688 1510.421875 L 1060.589844 1507.511719 L 1007.558594 1506.800781 L 969.554688 1506.289062 L 969.554688 1505.941406 Z M 916.519531 1505.941406 "/>
<path fill-rule="nonzero" fill="rgb(7.446289%, 0.392151%, 0.392151%)" fill-opacity="1" d="M 885.976562 1245.511719 L 860.144531 1219 L 2473.179688 1260.789062 L 2499.691406 1261.46875 L 2498.308594 1314.488281 L 2471.808594 1313.808594 L 858.773438 1272.019531 C 844.398438 1271.648438 832.941406 1259.890625 832.941406 1245.511719 L 832.941406 1218.988281 L 885.976562 1218.988281 Z M 885.976562 1245.511719 "/>
</svg>
